<svg version="1.1" id="Layer_1" xmlns="http://www.w3.org/2000/svg" xmlns:xlink="http://www.w3.org/1999/xlink" x="0px" y="0px"
	 width="100%" viewBox="0 0 1024 1024" enable-background="new 0 0 1024 1024" xml:space="preserve">
<path fill="none" opacity="1.000000" stroke="#000000" stroke-linecap="round" stroke-linejoin="round" stroke-width="4.000000"
	d="
M268.500000,222.000000 
	C287.355225,222.813492 306.194153,223.804871 325.006622,225.423141 
	C337.471741,226.495361 349.998749,226.857910 362.500366,227.492996 
	C374.669800,228.111191 386.814209,229.100006 398.991852,229.672943 
	C409.989807,230.190384 421.017548,230.807678 431.983185,231.705322 
	C443.650177,232.660385 455.381866,232.731750 467.018921,234.365173 
	C472.760590,235.171097 478.665985,234.885223 484.511383,235.359695 
	C498.142365,236.466110 511.845520,236.648315 525.496948,237.546463 
	C542.842896,238.687714 560.161011,240.247192 577.502563,241.463562 
	C585.320801,242.011932 593.184631,241.938904 600.995728,242.554459 
	C612.153748,243.433792 623.343079,243.848419 634.486816,244.677109 
	C649.651062,245.804764 664.835999,246.460648 679.999573,247.506485 
	C696.501526,248.644623 712.995300,249.905533 729.501526,250.976089 
	C741.660339,251.764694 753.837769,252.261780 765.998840,253.018326 
	C780.836975,253.941360 795.654419,255.344177 810.504456,255.874756 
	C819.858643,256.208984 829.162781,257.065735 838.497437,257.549500 
	C850.674622,258.180573 862.836060,259.129639 874.998047,260.026245 
	C878.010986,260.248352 881.000000,258.598419 884.221985,260.102142 
	C885.063904,272.869629 884.125549,285.687256 883.000000,298.500000 
"/>
<path fill="none" opacity="1.000000" stroke="#000000" stroke-linecap="round" stroke-linejoin="round" stroke-width="3.000000"
	d="
M875.500000,297.000000 
	C865.666687,296.833344 855.780701,297.254059 846.010864,296.378632 
	C825.201355,294.513977 804.306946,294.269348 783.497253,292.533142 
	C773.354187,291.686920 763.163574,291.888397 752.989807,291.138641 
	C733.024536,289.667206 713.004456,288.894287 692.997681,288.054535 
	C685.496094,287.739716 677.979980,287.359253 670.495789,287.204407 
	C661.476196,287.017822 652.500732,286.287567 643.502808,285.929688 
	C623.661194,285.140503 603.815613,284.450684 583.990845,283.138367 
	C574.526123,282.511810 564.997864,282.512238 555.495972,282.090363 
	C534.008728,281.136322 512.474426,281.106781 491.008148,279.859955 
	C474.007568,278.872467 456.994995,278.752838 440.002197,277.953217 
	C411.845093,276.628204 383.666107,275.950470 355.507263,274.819244 
	C337.841553,274.109497 320.161255,273.430725 302.502106,272.461548 
	C291.505219,271.858032 280.513428,271.389984 269.500000,271.500000 
"/>
<path fill="none" opacity="1.000000" stroke="#000000" stroke-linecap="round" stroke-linejoin="round" stroke-width="4.000000"
	d="
M91.000000,282.500000 
	C92.057060,352.664551 91.055779,422.835114 91.636124,492.998871 
	C91.778107,510.164459 91.677277,527.335510 92.012657,544.499756 
	C93.119865,601.164246 91.946892,657.836609 92.630135,714.498413 
	C92.867302,734.167419 92.843109,753.833435 92.972313,773.500183 
	C93.099319,792.832642 93.006615,812.166687 92.988335,831.500000 
	C92.986748,833.174438 93.301270,834.896790 92.500000,836.500000 
"/>
<path fill="none" opacity="1.000000" stroke="#000000" stroke-linecap="round" stroke-linejoin="round" stroke-width="4.000000"
	d="
M206.500000,297.500000 
	C205.491455,310.489197 206.129776,323.499908 206.014374,336.500122 
	C205.101440,439.332062 205.325974,542.167664 205.661362,644.999451 
	C205.786377,683.331909 205.641312,721.667847 206.031693,759.999695 
	C206.165802,773.168396 206.856689,786.332031 206.945496,799.500366 
	C207.030914,812.165344 206.666672,824.833313 206.500000,837.500000 
"/>
<path fill="none" opacity="1.000000" stroke="#000000" stroke-linecap="round" stroke-linejoin="round" stroke-width="5.000000"
	d="
M216.500000,293.000000 
	C215.104691,322.654724 215.353012,352.333038 215.632889,381.998749 
	C215.731903,392.494476 215.975891,402.999939 215.978622,413.500000 
	C216.011612,540.500000 215.933777,667.500122 216.112289,794.499817 
	C216.128448,805.990967 216.361618,817.499573 216.530548,828.999573 
	C216.545074,829.989868 216.052292,831.053284 216.983231,832.016235 
	C220.844589,836.010254 219.117569,840.872437 219.019608,845.500427 
	C218.927933,849.831787 218.952972,854.167358 219.014191,858.499817 
	C219.067673,862.284973 217.665359,864.723450 214.053238,866.602356 
	C204.233383,871.710022 193.632950,874.306152 182.976212,876.377625 
	C166.343887,879.610596 149.428940,880.917175 132.508301,879.866272 
	C121.639069,879.191345 110.695320,878.398499 100.429588,873.652283 
	C96.075844,871.639343 93.985130,868.245728 93.716103,864.484558 
	C93.243202,857.873169 92.049553,851.166687 93.500000,844.500000 
"/>
<path fill="none" opacity="1.000000" stroke="#000000" stroke-linecap="round" stroke-linejoin="round" stroke-width="4.000000"
	d="
M265.000000,274.500000 
	C265.240204,259.154205 264.930511,243.819641 263.983978,228.500992 
	C263.808899,225.667816 265.052643,222.470886 263.381775,220.082718 
	C261.561493,217.481033 258.164398,218.993515 255.508759,218.456635 
	C246.422867,216.619873 237.167191,216.331192 227.989914,215.632416 
	C215.502777,214.681625 203.029617,213.495102 190.509354,212.825256 
	C181.012909,212.317215 171.469940,211.754822 162.019165,210.808624 
	C148.654221,209.470581 135.330872,210.169617 121.999496,210.107483 
	C112.284111,210.062210 102.593971,211.147400 92.983154,212.908035 
	C88.918488,213.652664 87.478600,215.692566 87.485611,219.500031 
	C87.518135,237.166641 87.455696,254.833511 87.530075,272.499878 
	C87.549507,277.114807 88.826363,277.568359 93.508873,277.086182 
	C102.812202,276.128143 112.156708,275.368958 121.501892,275.056488 
	C148.212128,274.163269 174.831360,276.753448 201.494827,277.653107 
	C211.652771,277.995880 221.927826,278.485718 231.959595,279.806854 
	C241.865601,281.111450 251.729034,279.273315 261.500000,281.000000 
"/>
<path fill="none" opacity="1.000000" stroke="#000000" stroke-linecap="round" stroke-linejoin="round" stroke-width="3.000000"
	d="
M128.500000,329.500000 
	C126.939354,475.500000 129.585358,621.500000 128.500000,767.500000 
"/>
<path fill="none" opacity="1.000000" stroke="#000000" stroke-linecap="round" stroke-linejoin="round" stroke-width="3.000000"
	d="
M860.000000,310.000000 
	C865.666687,308.535065 871.397461,309.690765 876.974121,310.255341 
	C879.963379,310.557983 882.998108,311.017731 885.999023,310.954102 
	C904.376038,310.564575 922.656006,312.580322 940.994019,313.182495 
	C951.494751,313.527252 961.995483,313.787292 972.497803,314.079590 
	C976.757019,314.198090 979.144165,312.426147 979.437256,308.495331 
	C980.566406,293.354279 980.544434,278.175690 980.522766,262.999969 
	C980.517639,259.397797 977.678223,259.271545 975.492920,259.081482 
	C965.675842,258.227814 955.790222,258.036896 946.011780,256.898621 
	C935.689087,255.697021 925.303284,254.837463 914.985291,254.264755 
	C900.197266,253.443909 885.377808,250.957611 870.506409,253.045639 
	C867.501709,253.467529 864.593140,254.558731 861.500000,254.500000 
"/>
<path fill="none" opacity="1.000000" stroke="#000000" stroke-linecap="round" stroke-linejoin="round" stroke-width="4.000000"
	d="
M655.500000,306.500000 
	C655.166687,306.500000 654.830933,306.526337 654.500366,306.496216 
	C644.579407,305.590332 643.491638,304.457092 643.998169,315.000092 
	C644.190308,318.999573 642.782776,323.000000 643.855164,327.196594 
	C653.823547,327.803009 663.654419,328.648529 673.501770,328.940247 
	C687.161438,329.344788 700.833130,329.349609 714.500061,329.495880 
	C731.666565,329.679626 748.833618,329.806458 765.999817,330.015625 
	C771.501038,330.082672 777.002197,330.282898 782.499023,330.522217 
	C785.070618,330.634155 786.734253,330.148834 786.570251,326.996338 
	C786.493286,325.517700 787.354614,324.014038 787.467957,322.497589 
	C787.995117,315.443970 786.892944,313.819214 779.992737,313.066528 
	C772.691772,312.270142 765.339844,311.848816 757.998596,311.532288 
	C743.836670,310.921631 729.647644,310.797791 715.506897,309.892426 
	C706.488342,309.315033 697.497437,309.804230 688.500000,309.500000 
"/>
<path fill="none" opacity="1.000000" stroke="#000000" stroke-linecap="round" stroke-linejoin="round" stroke-width="3.000000"
	d="
M976.500000,309.000000 
	C957.012634,307.621887 937.515442,306.410370 918.015198,305.245239 
	C897.826050,304.038971 877.670105,304.370605 857.501587,303.928040 
	C853.903015,303.849091 850.617737,305.500549 846.992432,305.062653 
	C844.593079,304.772888 842.528259,304.558868 842.500000,301.500000 
"/>
<path fill="none" opacity="1.000000" stroke="#000000" stroke-linecap="round" stroke-linejoin="round" stroke-width="3.000000"
	d="
M218.000000,840.000000 
	C208.270096,846.951721 196.878983,849.207947 185.500092,851.500427 
	C167.325302,855.162109 148.913986,855.530151 130.503906,854.888184 
	C120.652199,854.544617 110.737106,853.515686 101.513489,849.469238 
	C97.798294,847.839355 94.145622,845.959839 93.000000,841.500000 
"/>
<path fill="none" opacity="1.000000" stroke="#000000" stroke-linecap="round" stroke-linejoin="round" stroke-width="3.000000"
	d="
M242.000000,282.000000 
	C242.000000,282.333344 241.975098,282.668793 242.003616,282.999695 
	C242.853348,292.859100 242.360657,292.867859 232.497055,292.615295 
	C217.272507,292.225372 202.153305,290.555573 187.012421,289.344727 
	C161.674988,287.318481 136.335541,288.373566 110.999535,288.035095 
	C105.502739,287.961700 100.000000,288.333344 94.500000,288.500000 
"/>
<path fill="none" opacity="1.000000" stroke="#000000" stroke-linecap="round" stroke-linejoin="round" stroke-width="3.000000"
	d="
M592.500000,292.000000 
	C590.166687,291.666656 587.817261,290.965149 585.502869,291.066101 
	C577.127563,291.431396 568.797302,289.689850 560.508850,290.157379 
	C549.424622,290.782562 538.435364,289.587830 527.526550,288.680847 
	C517.660706,287.860596 507.803894,287.970093 497.994385,287.751709 
	C482.958405,287.416962 468.019714,285.818207 453.001526,285.439972 
	C437.161438,285.041046 421.332977,284.175079 405.500092,283.497986 
	C383.654419,282.563782 361.813171,281.601349 339.994568,280.077820 
	C328.858917,279.300232 317.631927,279.767212 306.509827,278.877319 
	C295.511871,277.997345 284.439178,278.748444 273.497589,277.015320 
	C264.757416,275.630890 261.274384,281.307770 260.029663,289.004791 
	C259.819519,290.304169 259.891541,291.677429 260.022766,292.997742 
	C260.289246,295.679230 259.746002,297.412048 256.502747,297.560333 
	C253.316727,297.705994 253.441757,295.185059 253.095688,293.480560 
	C252.535522,290.721649 253.468155,287.786194 252.333344,284.500000 
	C249.350861,284.500000 246.175430,284.500000 243.000000,284.500000 
"/>
<path fill="none" opacity="1.000000" stroke="#000000" stroke-linecap="round" stroke-linejoin="round" stroke-width="4.000000"
	d="
M660.500000,324.500000 
	C656.745850,322.072266 653.676453,319.852051 656.755981,314.363098 
	C657.970642,312.198151 656.233154,308.588531 656.931885,305.484650 
	C659.951843,292.070221 668.284973,291.429504 677.454285,292.804779 
	C684.332886,293.836517 691.182251,293.980682 698.007568,294.365173 
	C719.320190,295.565857 740.667908,296.137390 761.999695,297.007843 
	C785.667786,297.973602 809.334167,298.981049 832.999207,300.017822 
	C837.171387,300.200592 841.333313,300.979736 845.500000,300.000000 
"/>
<path fill="none" opacity="1.000000" stroke="#000000" stroke-linecap="round" stroke-linejoin="round" stroke-width="4.000000"
	d="
M658.000000,315.000000 
	C659.333313,316.166687 660.505127,317.640656 662.030212,318.442505 
	C666.643677,320.867950 671.490479,321.331909 674.725708,318.966766 
	C677.091614,317.237091 679.899109,306.899933 678.397034,304.566284 
	C677.208862,302.720154 676.227478,300.199036 672.994385,300.416351 
	C670.506042,300.583588 668.784180,301.288483 667.457336,303.474091 
	C665.834412,306.147339 665.740906,308.880127 667.086426,311.454834 
	C667.904358,313.019989 669.500671,314.248993 671.500000,314.500000 
"/>
<path fill="none" opacity="1.000000" stroke="#000000" stroke-linecap="round" stroke-linejoin="round" stroke-width="3.000000"
	d="
M660.500000,295.000000 
	C659.666687,294.666687 658.845093,294.076874 657.998230,294.037994 
	C642.333923,293.319489 626.669128,292.295349 610.998718,292.193359 
	C605.201538,292.155640 599.298462,291.112762 593.750000,292.425812 
	C593.750000,294.918793 593.750000,297.335266 593.750000,299.500000 
	C596.338745,299.500000 598.669678,299.475800 600.999939,299.505005 
	C605.986450,299.567413 606.377808,300.296387 604.000000,305.000000 
"/>
<path fill="none" opacity="1.000000" stroke="#000000" stroke-linecap="round" stroke-linejoin="round" stroke-width="4.000000"
	d="
M384.000000,314.500000 
	C387.970215,315.038635 390.058685,312.564423 391.446106,309.475800 
	C392.687500,306.712158 390.140472,301.270569 387.030182,298.466522 
	C383.926819,295.668671 380.596527,295.037689 377.022461,297.040070 
	C373.066406,299.256348 372.552704,302.881927 373.478088,307.004913 
	C374.408783,311.151459 376.826447,313.693817 381.004089,314.478241 
	C381.809052,314.629425 382.666656,314.500000 383.500000,314.500000 
"/>
<path fill="none" opacity="1.000000" stroke="#000000" stroke-linecap="round" stroke-linejoin="round" stroke-width="4.000000"
	d="
M546.000000,303.000000 
	C540.843018,304.684570 538.118103,308.317871 538.500000,313.000000 
	C538.862305,317.440887 543.009216,322.151459 547.505920,322.387817 
	C550.451477,322.542633 553.456665,321.419342 554.960571,318.479828 
	C556.751160,314.980225 556.583008,311.274506 554.433228,308.044434 
	C552.618408,305.317657 549.638062,303.912445 546.500000,303.000000 
"/>
<path fill="none" opacity="1.000000" stroke="#000000" stroke-linecap="round" stroke-linejoin="round" stroke-width="4.000000"
	d="
M894.500000,256.500000 
	C895.019531,268.856384 893.751587,281.164520 893.409790,293.497498 
	C893.344666,295.848267 894.752808,298.166656 893.500000,300.500000 
"/>
<path fill="none" opacity="1.000000" stroke="#000000" stroke-linecap="round" stroke-linejoin="round" stroke-width="4.000000"
	d="
M228.500000,293.000000 
	C227.549942,298.856873 229.720490,304.393127 230.687988,309.967377 
	C232.282028,319.151367 230.139206,321.837006 220.996460,320.017822 
	C219.521683,319.724365 218.000000,319.666687 216.500000,319.500000 
"/>
<path fill="none" opacity="1.000000" stroke="#000000" stroke-linecap="round" stroke-linejoin="round" stroke-width="3.000000"
	d="
M851.000000,305.500000 
	C851.934998,306.264160 852.450073,307.465515 853.998291,307.537079 
	C859.665283,307.798950 859.800476,311.609253 859.567078,316.003571 
	C859.305054,320.935944 860.955688,322.253082 866.000366,322.007324 
	C867.427856,321.937744 868.417847,322.131104 869.158936,320.056793 
	C870.527588,316.225952 873.771057,313.715088 877.500000,312.000000 
"/>
<path fill="none" opacity="1.000000" stroke="#000000" stroke-linecap="round" stroke-linejoin="round" stroke-width="5.000000"
	d="
M539.500000,290.500000 
	C539.634644,292.918884 539.131531,295.381744 540.057007,298.000000 
	C542.164673,298.000000 544.334351,297.939606 546.499634,298.011719 
	C552.198914,298.201508 553.161438,298.891602 553.000000,291.500000 
"/>
<path fill="none" opacity="1.000000" stroke="#000000" stroke-linecap="round" stroke-linejoin="round" stroke-width="3.000000"
	d="
M694.000000,325.500000 
	C694.806091,321.002228 694.244446,318.194061 691.810181,315.272125 
	C688.166321,318.083252 691.208801,322.385529 689.500000,325.500000 
"/>
<path fill="none" opacity="1.000000" stroke="#000000" stroke-linecap="round" stroke-linejoin="round" stroke-width="4.000000"
	d="
M445.000000,301.500000 
	C448.044891,305.039246 449.815826,308.641266 447.588409,313.540192 
	C445.480103,318.177063 441.719879,317.754395 438.005890,317.432251 
	C434.694092,317.144989 431.207886,312.963898 430.463715,309.507812 
	C429.530762,305.175079 430.793213,301.713104 434.536194,299.563019 
	C438.199371,297.458862 441.669708,298.318115 444.500000,301.500000 
"/>
<path fill="none" opacity="1.000000" stroke="#000000" stroke-linecap="round" stroke-linejoin="round" stroke-width="4.000000"
	d="
M375.500000,283.500000 
	C375.634644,285.918884 375.131561,288.381744 376.093292,291.102661 
	C379.804169,290.052765 383.700500,290.768677 388.000000,290.304626 
	C388.000000,288.013763 388.000000,286.006866 388.000000,284.000000 
"/>
<path fill="none" opacity="1.000000" stroke="#000000" stroke-linecap="round" stroke-linejoin="round" stroke-width="4.000000"
	d="
M433.000000,286.000000 
	C431.920197,288.250000 432.544067,290.500000 433.025299,292.875000 
	C436.497955,292.875000 439.998718,292.875000 443.623230,292.875000 
	C445.160797,291.037567 444.276520,288.683563 444.500000,286.500000 
"/>
<path fill="none" opacity="1.000000" stroke="#000000" stroke-linecap="round" stroke-linejoin="round" stroke-width="4.000000"
	d="
M489.500000,289.000000 
	C489.571625,291.107086 488.798615,294.062622 491.058685,294.826385 
	C493.978943,295.813263 497.463074,296.416138 500.454315,295.369446 
	C503.442505,294.323822 502.748749,291.454834 502.000000,289.000000 
"/>
<path fill="none" opacity="1.000000" stroke="#000000" stroke-linecap="round" stroke-linejoin="round" stroke-width="4.000000"
	d="
M711.500000,296.000000 
	C712.077637,300.166656 709.192444,304.333344 711.500000,308.500000 
"/>
<path fill="none" opacity="1.000000" stroke="#000000" stroke-linecap="round" stroke-linejoin="round" stroke-width="3.000000"
	d="
M778.500000,325.500000 
	C781.528137,324.414490 781.539673,321.895050 780.930420,319.517822 
	C780.239685,316.822754 778.112793,318.325745 776.000000,317.964661 
	C776.000000,320.155945 776.000000,321.827972 776.000000,323.500000 
"/>
<path fill="none" opacity="1.000000" stroke="#000000" stroke-linecap="round" stroke-linejoin="round" stroke-width="3.000000"
	d="
M223.000000,297.500000 
	C223.025696,300.840393 224.127930,304.126923 223.500000,307.500000 
"/>
<path fill="none" opacity="1.000000" stroke="#000000" stroke-linecap="round" stroke-linejoin="round" stroke-width="4.000000"
	d="
M866.500000,310.000000 
	C866.024475,312.863342 868.081604,316.676422 863.500000,318.000000 
"/>
<path fill="none" opacity="1.000000" stroke="#000000" stroke-linecap="round" stroke-linejoin="round" stroke-width="3.000000"
	d="
M444.000000,302.000000 
	C443.000000,304.833344 442.000000,307.666656 441.000000,310.500000 
"/>
<path fill="none" opacity="1.000000" stroke="#000000" stroke-linecap="round" stroke-linejoin="round" stroke-width="3.000000"
	d="
M650.000000,315.500000 
	C649.973450,318.534088 650.294617,321.606812 649.000000,324.500000 
"/>
<path fill="none" opacity="1.000000" stroke="#000000" stroke-linecap="round" stroke-linejoin="round" stroke-width="4.000000"
	d="
M603.000000,309.000000 
	C601.253113,310.324432 602.519165,312.035034 602.585144,313.496155 
	C602.663635,315.231750 601.983948,315.820465 600.500000,316.000000 
"/>
<path fill="none" opacity="1.000000" stroke="#000000" stroke-linecap="round" stroke-linejoin="round" stroke-width="4.000000"
	d="
M598.500000,305.000000 
	C591.246277,308.807953 589.753845,317.016144 595.500000,321.500000 
	C598.977478,324.213593 603.780029,324.213562 606.499939,321.499969 
	C609.478638,318.528168 609.990479,312.938568 607.484802,309.511108 
	C605.407349,306.669342 602.373779,305.479126 599.000000,305.000000 
"/>
<path fill="none" opacity="1.000000" stroke="#000000" stroke-linecap="round" stroke-linejoin="round" stroke-width="4.000000"
	d="
M492.500000,301.000000 
	C484.306061,306.860809 484.297791,315.318787 492.504456,319.491211 
	C495.403259,320.965057 498.263977,320.936584 501.001984,319.002808 
	C504.163513,316.769958 505.417847,313.504822 504.395111,310.030884 
	C502.861023,304.820068 497.955872,300.128235 493.000000,301.000000 
"/>
</svg>