<svg xmlns="http://www.w3.org/2000/svg" version="1.1" id="Layer_1" width="100%" viewBox="-31 -31 858 858" xml:space="preserve" height="100%" preserveAspectRatio="xMidYMid meet">
  <path fill="#000000" opacity="1.000000" stroke="none" d=" M1.000000,294.000000   C1.000000,196.000000 1.000000,98.500000 1.000000,1.000000   C265.666656,1.000000 530.333313,1.000000 795.000000,1.000000   C795.000000,265.666656 795.000000,530.333313 795.000000,795.000000   C530.333313,795.000000 265.666656,795.000000 1.000000,795.000000   C1.000000,628.166687 1.000000,461.333344 1.000000,294.000000  M612.501221,77.639099   C431.773865,78.659271 251.046494,79.679443 70.604095,80.698006   C70.604095,289.942596 70.604095,498.357452 70.604095,706.682007   C140.358185,706.682007 209.597229,706.682007 278.727539,706.682007   C278.727539,704.024963 278.727539,701.739380 278.727539,698.999390   C211.957214,698.999390 145.373337,698.999390 78.555267,698.999390   C78.555267,495.470398 78.555267,292.400787 78.555267,88.741318   C292.149048,87.495224 505.513611,86.250458 718.737671,85.006523   C718.737671,81.997360 718.737671,79.585716 718.737671,77.638016   C683.450867,77.638016 648.476135,77.638016 612.501221,77.639099  M214.909332,285.354187   C198.902237,289.838989 187.984650,300.515442 180.380386,315.222748   C180.031036,314.943298 179.681702,314.663818 179.332352,314.384369   C178.106354,305.081604 176.880356,295.778809 175.644516,286.401306   C173.141891,286.401306 171.070023,286.401306 168.913345,286.401306   C168.913345,336.303223 168.913345,385.913361 168.913345,435.562439   C172.929321,435.562439 176.684891,435.562439 180.820969,435.562439   C180.820969,433.951813 180.821091,432.652954 180.820953,431.354095   C180.818176,402.189270 180.777817,373.024353 180.822891,343.859619   C180.870010,313.381866 202.139267,293.126038 232.514374,295.095947   C248.994141,296.164734 261.634857,303.820862 268.744293,319.244415   C272.800720,328.044556 273.696564,337.504791 273.719910,347.038971   C273.788055,374.870392 273.743683,402.702118 273.743439,430.533722   C273.743408,432.176331 273.743439,433.818939 273.743439,435.620239   C277.882965,435.620239 281.625183,435.620239 285.879608,435.620239   C285.879608,433.593781 285.879608,431.805328 285.879608,430.016876   C285.879272,401.685303 285.829926,373.353577 285.929108,345.022369   C285.944763,340.552490 286.200684,335.997925 287.082611,331.631378   C291.011719,312.178284 306.055359,298.211975 325.928650,295.198486   C344.871979,292.326019 362.870728,301.286407 372.437408,318.413513   C377.277557,327.078705 378.745697,336.570709 378.771667,346.310211   C378.846283,374.308289 378.798248,402.306671 378.798431,430.304932   C378.798431,432.086090 378.798431,433.867249 378.798431,435.548462   C383.136749,435.548462 386.884277,435.548462 390.772858,435.548462   C390.834320,434.427551 390.917633,433.616058 390.917755,432.804535   C390.922089,403.306396 391.020721,373.807587 390.826569,344.310699   C390.789612,338.695251 390.011108,332.999329 388.855682,327.491333   C383.684662,302.841583 364.205444,285.433960 338.560913,283.430420   C315.995300,281.667419 294.080536,293.103271 284.021973,316.054413   C283.690582,316.810516 282.985291,317.402740 282.068390,318.557312   C280.919678,316.250244 280.259827,314.386322 279.166351,312.826324   C275.376007,307.419037 272.171356,301.320740 267.414459,296.923523   C252.612183,283.240387 234.774384,280.980743 214.909332,285.354187  M540.230286,437.177643   C551.936584,439.832336 563.721436,439.941284 575.390991,437.368561   C608.302612,430.112793 630.049194,407.290802 635.254089,373.936066   C641.625061,333.108673 618.875671,294.989441 576.988403,285.337341   C537.097351,276.145294 492.905212,296.899994 482.428955,341.395508   C472.593018,383.171448 494.079865,426.488770 540.230286,437.177643  M445.805756,295.561646   C445.805756,292.484039 445.805756,289.406433 445.805756,286.386108   C441.218353,286.386108 437.458588,286.386108 433.671295,286.386108   C433.671295,336.339325 433.671295,385.989838 433.671295,435.593231   C437.858948,435.593231 441.622559,435.593231 445.805756,435.593231   C445.805756,389.041779 445.805756,342.792542 445.805756,295.561646  M252.183197,562.462769   C261.129364,563.849670 268.370026,560.746887 274.428864,553.082703   C274.649017,556.649841 274.808655,559.236572 274.967316,561.807495   C277.020538,561.807495 278.786682,561.807495 280.733704,561.807495   C280.733704,540.503723 280.733704,519.426453 280.733704,498.215149   C278.655975,498.215149 276.795593,498.215149 274.703644,498.215149   C274.703644,502.525024 274.703613,506.511108 274.703613,510.497192   C274.703613,514.460999 274.703644,518.424744 274.703644,523.511780   C265.312653,513.840149 255.529877,511.620514 246.075684,516.092712   C237.429230,520.182800 232.301086,530.125916 233.420593,540.630066   C234.708832,552.717346 240.423187,559.596375 252.183197,562.462769  M347.076782,515.168579   C346.267151,514.975830 345.459900,514.772400 344.647522,514.592041   C334.302216,512.294861 324.305542,516.064697 319.293427,524.149780   C313.836823,532.951904 314.584259,547.064392 320.911255,554.697571   C327.138977,562.210938 337.768005,564.805237 347.737549,561.245117   C354.496674,558.831482 359.302368,553.190857 359.728180,547.081421   C357.912201,547.081421 356.103149,547.081421 354.353241,547.081421   C349.540222,555.982361 343.345459,558.999939 334.272400,556.943665   C327.233826,555.348511 322.670685,549.413696 322.190216,540.775513   C335.086456,540.775513 347.964996,540.775513 360.774567,540.775513   C362.228973,528.068359 358.495667,520.959961 347.076782,515.168579  M501.180725,515.066162   C500.692352,514.964783 500.201324,514.874634 499.715973,514.760437   C489.129395,512.268433 479.344360,515.820984 473.880219,524.143188   C468.206848,532.784180 468.487396,545.490601 474.533478,553.734009   C480.126038,561.359009 490.439240,564.584656 500.477509,561.848450   C509.456970,559.400879 516.200012,551.338013 516.990295,542.103760   C518.140564,528.662476 513.661682,520.668213 501.180725,515.066162  M406.927338,554.887756   C400.254181,550.187317 398.944183,543.315063 399.615906,535.887878   C400.478271,526.353027 404.941681,521.160950 412.999390,519.655334   C421.395050,518.086548 427.184143,521.274353 431.678741,529.930176   C433.622589,529.930176 435.566437,529.930176 437.558624,529.930176   C434.816345,518.385986 424.925842,512.250427 412.419006,514.148926   C399.974915,516.037903 392.307007,526.390808 393.098602,540.234619   C393.860077,553.552734 402.779663,562.489502 415.643494,562.822937   C427.024719,563.117920 436.137909,556.369019 437.263214,546.676514   C435.302216,546.676514 433.359192,546.676514 431.511902,546.676514   C426.704132,557.076477 418.151550,560.088684 406.927338,554.887756  M564.038574,516.490540   C562.327942,517.814575 560.617249,519.138611 558.487549,520.786987   C558.280151,518.361023 558.130920,516.615662 557.988281,514.946899   C555.910767,514.946899 554.137939,514.946899 552.320557,514.946899   C552.320557,530.738464 552.320557,546.278809 552.320557,561.821289   C554.393372,561.821289 556.177002,561.821289 558.241699,561.821289   C558.241699,559.641052 558.210693,557.656738 558.247192,555.673645   C558.396790,547.541992 558.193481,539.380493 558.849670,531.289124   C559.358887,525.009521 562.724548,522.044312 568.939575,520.742371   C570.706787,520.372131 572.504639,520.148071 574.366089,519.844299   C574.366089,517.912476 574.366089,516.137146 574.366089,513.348389   C570.846802,514.337219 567.772888,515.200989 564.038574,516.490540  M442.550446,229.697159   C436.643372,228.354492 431.924713,230.761597 430.894531,235.643066   C429.885895,240.422653 432.251434,244.608994 436.847046,246.177246   C440.786896,247.521744 444.966492,245.902878 447.001801,242.244049   C449.494415,237.763245 448.204163,233.487686 442.550446,229.697159  z" />
  <path fill="#F5F5F5" opacity="1.000000" stroke="none" d=" M613.001282,77.638557   C648.476135,77.638016 683.450867,77.638016 718.737671,77.638016   C718.737671,79.585716 718.737671,81.997360 718.737671,85.006523   C505.513611,86.250458 292.149048,87.495224 78.555267,88.741318   C78.555267,292.400787 78.555267,495.470398 78.555267,698.999390   C145.373337,698.999390 211.957214,698.999390 278.727539,698.999390   C278.727539,701.739380 278.727539,704.024963 278.727539,706.682007   C209.597229,706.682007 140.358185,706.682007 70.604095,706.682007   C70.604095,498.357452 70.604095,289.942596 70.604095,80.698006   C251.046494,79.679443 431.773865,78.659271 613.001282,77.638557  z" />
  <path fill="#F8F8F8" opacity="1.000000" stroke="none" d=" M215.295166,285.220703   C234.774384,280.980743 252.612183,283.240387 267.414459,296.923523   C272.171356,301.320740 275.376007,307.419037 279.166351,312.826324   C280.259827,314.386322 280.919678,316.250244 282.068390,318.557312   C282.985291,317.402740 283.690582,316.810516 284.021973,316.054413   C294.080536,293.103271 315.995300,281.667419 338.560913,283.430420   C364.205444,285.433960 383.684662,302.841583 388.855682,327.491333   C390.011108,332.999329 390.789612,338.695251 390.826569,344.310699   C391.020721,373.807587 390.922089,403.306396 390.917755,432.804535   C390.917633,433.616058 390.834320,434.427551 390.772858,435.548462   C386.884277,435.548462 383.136749,435.548462 378.798431,435.548462   C378.798431,433.867249 378.798431,432.086090 378.798431,430.304932   C378.798248,402.306671 378.846283,374.308289 378.771667,346.310211   C378.745697,336.570709 377.277557,327.078705 372.437408,318.413513   C362.870728,301.286407 344.871979,292.326019 325.928650,295.198486   C306.055359,298.211975 291.011719,312.178284 287.082611,331.631378   C286.200684,335.997925 285.944763,340.552490 285.929108,345.022369   C285.829926,373.353577 285.879272,401.685303 285.879608,430.016876   C285.879608,431.805328 285.879608,433.593781 285.879608,435.620239   C281.625183,435.620239 277.882965,435.620239 273.743439,435.620239   C273.743439,433.818939 273.743408,432.176331 273.743439,430.533722   C273.743683,402.702118 273.788055,374.870392 273.719910,347.038971   C273.696564,337.504791 272.800720,328.044556 268.744293,319.244415   C261.634857,303.820862 248.994141,296.164734 232.514374,295.095947   C202.139267,293.126038 180.870010,313.381866 180.822891,343.859619   C180.777817,373.024353 180.818176,402.189270 180.820953,431.354095   C180.821091,432.652954 180.820969,433.951813 180.820969,435.562439   C176.684891,435.562439 172.929321,435.562439 168.913345,435.562439   C168.913345,385.913361 168.913345,336.303223 168.913345,286.401306   C171.070023,286.401306 173.141891,286.401306 175.644516,286.401306   C176.880356,295.778809 178.106354,305.081604 179.332352,314.384369   C179.681702,314.663818 180.031036,314.943298 180.380386,315.222748   C187.984650,300.515442 198.902237,289.838989 215.295166,285.220703  z" />
  <path fill="#F7F7F7" opacity="1.000000" stroke="none" d=" M539.814941,437.109253   C494.079865,426.488770 472.593018,383.171448 482.428955,341.395508   C492.905212,296.899994 537.097351,276.145294 576.988403,285.337341   C618.875671,294.989441 641.625061,333.108673 635.254089,373.936066   C630.049194,407.290802 608.302612,430.112793 575.390991,437.368561   C563.721436,439.941284 551.936584,439.832336 539.814941,437.109253  M621.976257,342.746185   C618.941772,330.653473 612.990967,320.104401 603.700195,311.907104   C582.275940,293.004547 557.455444,289.400848 531.640625,300.014221   C504.878448,311.017059 492.268097,332.927032 492.280975,361.496582   C492.297089,397.252716 517.305054,425.051514 551.851746,427.725952   C601.179504,431.544617 633.171692,389.431671 621.976257,342.746185  z" />
  <path fill="#F0F0F0" opacity="1.000000" stroke="none" d=" M445.805756,296.052460   C445.805756,342.792542 445.805756,389.041779 445.805756,435.593231   C441.622559,435.593231 437.858948,435.593231 433.671295,435.593231   C433.671295,385.989838 433.671295,336.339325 433.671295,286.386108   C437.458588,286.386108 441.218353,286.386108 445.805756,286.386108   C445.805756,289.406433 445.805756,292.484039 445.805756,296.052460  z" />
  <path fill="#F0F0F0" opacity="1.000000" stroke="none" d=" M251.779922,562.354309   C240.423187,559.596375 234.708832,552.717346 233.420593,540.630066   C232.301086,530.125916 237.429230,520.182800 246.075684,516.092712   C255.529877,511.620514 265.312653,513.840149 274.703644,523.511780   C274.703644,518.424744 274.703613,514.460999 274.703613,510.497192   C274.703613,506.511108 274.703644,502.525024 274.703644,498.215149   C276.795593,498.215149 278.655975,498.215149 280.733704,498.215149   C280.733704,519.426453 280.733704,540.503723 280.733704,561.807495   C278.786682,561.807495 277.020538,561.807495 274.967316,561.807495   C274.808655,559.236572 274.649017,556.649841 274.428864,553.082703   C268.370026,560.746887 261.129364,563.849670 251.779922,562.354309  M246.046860,553.550903   C259.069580,562.048035 273.359985,555.203979 274.640411,539.856689   C275.491882,529.651428 269.512238,521.373352 260.110565,519.741943   C250.773285,518.121704 242.514801,523.097290 240.430603,532.284302   C238.714676,539.847839 239.394501,547.200562 246.046860,553.550903  z" />
  <path fill="#F0F0F0" opacity="1.000000" stroke="none" d=" M347.440643,515.326172   C358.495667,520.959961 362.228973,528.068359 360.774567,540.775513   C347.964996,540.775513 335.086456,540.775513 322.190216,540.775513   C322.670685,549.413696 327.233826,555.348511 334.272400,556.943665   C343.345459,558.999939 349.540222,555.982361 354.353241,547.081421   C356.103149,547.081421 357.912201,547.081421 359.728180,547.081421   C359.302368,553.190857 354.496674,558.831482 347.737549,561.245117   C337.768005,564.805237 327.138977,562.210938 320.911255,554.697571   C314.584259,547.064392 313.836823,532.951904 319.293427,524.149780   C324.305542,516.064697 334.302216,512.294861 344.647522,514.592041   C345.459900,514.772400 346.267151,514.975830 347.440643,515.326172  M335.512390,535.759460   C341.938660,535.759460 348.364929,535.759460 354.778595,535.759460   C354.733551,525.421875 347.608490,518.746521 337.870636,519.231384   C329.488129,519.648926 321.331543,526.457214 322.593079,535.759460   C326.549652,535.759460 330.534210,535.759460 335.512390,535.759460  z" />
  <path fill="#F2F2F2" opacity="1.000000" stroke="none" d=" M501.570038,515.170654   C513.661682,520.668213 518.140564,528.662476 516.990295,542.103760   C516.200012,551.338013 509.456970,559.400879 500.477509,561.848450   C490.439240,564.584656 480.126038,561.359009 474.533478,553.734009   C468.487396,545.490601 468.206848,532.784180 473.880219,524.143188   C479.344360,515.820984 489.129395,512.268433 499.715973,514.760437   C500.201324,514.874634 500.692352,514.964783 501.570038,515.170654  M481.100647,552.393982   C487.686676,557.894470 496.079193,558.825012 502.767883,554.796326   C509.316223,550.852112 512.354980,541.762207 510.160126,532.683899   C508.133392,524.301025 501.845490,519.336304 493.303375,519.374390   C484.854919,519.412048 478.595673,524.560059 476.745728,533.014648   C475.248657,539.856262 476.195038,546.208557 481.100647,552.393982  z" />
  <path fill="#EEEEEE" opacity="1.000000" stroke="none" d=" M407.271545,555.076416   C418.151550,560.088684 426.704132,557.076477 431.511902,546.676514   C433.359192,546.676514 435.302216,546.676514 437.263214,546.676514   C436.137909,556.369019 427.024719,563.117920 415.643494,562.822937   C402.779663,562.489502 393.860077,553.552734 393.098602,540.234619   C392.307007,526.390808 399.974915,516.037903 412.419006,514.148926   C424.925842,512.250427 434.816345,518.385986 437.558624,529.930176   C435.566437,529.930176 433.622589,529.930176 431.677551,529.935059   C427.184143,521.274353 421.395050,518.086548 412.999390,519.655334   C404.941681,521.160950 400.478271,526.353027 399.615906,535.887878   C398.944183,543.315063 400.254181,550.187317 407.271545,555.076416  z" />
  <path fill="#F4F4F4" opacity="1.000000" stroke="none" d=" M564.368774,516.277588   C567.772888,515.200989 570.846802,514.337219 574.366089,513.348389   C574.366089,516.137146 574.366089,517.912476 574.366089,519.844299   C572.504639,520.148071 570.706787,520.372131 568.939575,520.742371   C562.724548,522.044312 559.358887,525.009521 558.849670,531.289124   C558.193481,539.380493 558.396790,547.541992 558.247192,555.673645   C558.210693,557.656738 558.241699,559.641052 558.241699,561.821289   C556.177002,561.821289 554.393372,561.821289 552.320557,561.821289   C552.320557,546.278809 552.320557,530.738464 552.320557,514.946899   C554.137939,514.946899 555.910767,514.946899 557.988281,514.946899   C558.130920,516.615662 558.280151,518.361023 558.487549,520.786987   C560.617249,519.138611 562.327942,517.814575 564.368774,516.277588  z" />
  <path fill="#F5F5F5" opacity="1.000000" stroke="none" d=" M442.921692,229.825531   C448.204163,233.487686 449.494415,237.763245 447.001801,242.244049   C444.966492,245.902878 440.786896,247.521744 436.847046,246.177246   C432.251434,244.608994 429.885895,240.422653 430.894531,235.643066   C431.924713,230.761597 436.643372,228.354492 442.921692,229.825531  z" />
  <path fill="#010101" opacity="1.000000" stroke="none" d=" M622.020142,343.163147   C633.171692,389.431671 601.179504,431.544617 551.851746,427.725952   C517.305054,425.051514 492.297089,397.252716 492.280975,361.496582   C492.268097,332.927032 504.878448,311.017059 531.640625,300.014221   C557.455444,289.400848 582.275940,293.004547 603.700195,311.907104   C612.990967,320.104401 618.941772,330.653473 622.020142,343.163147  z" />
  <path fill="#050505" opacity="1.000000" stroke="none" d=" M245.778778,553.289551   C239.394501,547.200562 238.714676,539.847839 240.430603,532.284302   C242.514801,523.097290 250.773285,518.121704 260.110565,519.741943   C269.512238,521.373352 275.491882,529.651428 274.640411,539.856689   C273.359985,555.203979 259.069580,562.048035 245.778778,553.289551  z" />
  <path fill="#0B0B0B" opacity="1.000000" stroke="none" d=" M335.015594,535.759460   C330.534210,535.759460 326.549652,535.759460 322.593079,535.759460   C321.331543,526.457214 329.488129,519.648926 337.870636,519.231384   C347.608490,518.746521 354.733551,525.421875 354.778595,535.759460   C348.364929,535.759460 341.938660,535.759460 335.015594,535.759460  z" />
  <path fill="#050505" opacity="1.000000" stroke="none" d=" M480.841492,552.125000   C476.195038,546.208557 475.248657,539.856262 476.745728,533.014648   C478.595673,524.560059 484.854919,519.412048 493.303375,519.374390   C501.845490,519.336304 508.133392,524.301025 510.160126,532.683899   C512.354980,541.762207 509.316223,550.852112 502.767883,554.796326   C496.079193,558.825012 487.686676,557.894470 480.841492,552.125000  z" />
</svg>